<svg width="20" height="20" viewBox="0 0 30 30" fill="none" xmlns="http://www.w3.org/2000/svg">
<path d="M5.625 30C4.59375 30 3.71125 29.6739 2.9775 29.0217C2.2425 28.3683 1.875 27.5833 1.875 26.6667V5C1.34375 5 0.898125 4.84056 0.538125 4.52167C0.179375 4.20167 0 3.80556 0 3.33333C0 2.86111 0.179375 2.465 0.538125 2.145C0.898125 1.82611 1.34375 1.66667 1.875 1.66667H9.375C9.375 1.19444 9.555 0.798333 9.915 0.478333C10.2738 0.159444 10.7188 0 11.25 0H18.75C19.2812 0 19.7269 0.159444 20.0869 0.478333C20.4456 0.798333 20.625 1.19444 20.625 1.66667H28.125C28.6562 1.66667 29.1012 1.82611 29.46 2.145C29.82 2.465 30 2.86111 30 3.33333C30 3.80556 29.82 4.20167 29.46 4.52167C29.1012 4.84056 28.6562 5 28.125 5V26.6667C28.125 27.5833 27.7581 28.3683 27.0244 29.0217C26.2894 29.6739 25.4062 30 24.375 30H5.625ZM9.375 21.6667C9.375 22.1389 9.555 22.5344 9.915 22.8533C10.2738 23.1733 10.7188 23.3333 11.25 23.3333C11.7812 23.3333 12.2269 23.1733 12.5869 22.8533C12.9456 22.5344 13.125 22.1389 13.125 21.6667V10C13.125 9.52778 12.9456 9.13167 12.5869 8.81167C12.2269 8.49278 11.7812 8.33333 11.25 8.33333C10.7188 8.33333 10.2738 8.49278 9.915 8.81167C9.555 9.13167 9.375 9.52778 9.375 10V21.6667ZM16.875 21.6667C16.875 22.1389 17.055 22.5344 17.415 22.8533C17.7738 23.1733 18.2188 23.3333 18.75 23.3333C19.2812 23.3333 19.7269 23.1733 20.0869 22.8533C20.4456 22.5344 20.625 22.1389 20.625 21.6667V10C20.625 9.52778 20.4456 9.13167 20.0869 8.81167C19.7269 8.49278 19.2812 8.33333 18.75 8.33333C18.2188 8.33333 17.7738 8.49278 17.415 8.81167C17.055 9.13167 16.875 9.52778 16.875 10V21.6667Z" fill="#FF00FF"/>
</svg>
